<?xml version="1.0" encoding="UTF-8" standalone="no"?>
<svg
   inkscape:version="1.2.1 (9c6d41e4, 2022-07-14)"
   sodipodi:docname="app_icon_moni.svg"
   id="svg8"
   version="1.1"
   viewBox="0 0 145.10001 145.10001"
   height="145.10001mm"
   width="145.10001mm"
   xmlns:inkscape="http://www.inkscape.org/namespaces/inkscape"
   xmlns:sodipodi="http://sodipodi.sourceforge.net/DTD/sodipodi-0.dtd"
   xmlns="http://www.w3.org/2000/svg"
   xmlns:svg="http://www.w3.org/2000/svg"
   xmlns:rdf="http://www.w3.org/1999/02/22-rdf-syntax-ns#"
   xmlns:cc="http://creativecommons.org/ns#"
   xmlns:dc="http://purl.org/dc/elements/1.1/">
  <defs
     id="defs2" />
  <sodipodi:namedview
     fit-margin-bottom="0"
     fit-margin-right="0"
     fit-margin-left="0"
     fit-margin-top="0"
     inkscape:window-maximized="0"
     inkscape:window-y="25"
     inkscape:window-x="72"
     inkscape:window-height="783"
     inkscape:window-width="1390"
     showgrid="true"
     inkscape:document-rotation="0"
     inkscape:current-layer="layer1"
     inkscape:document-units="mm"
     inkscape:cy="563"
     inkscape:cx="483"
     inkscape:zoom="0.5"
     inkscape:pageshadow="2"
     inkscape:pageopacity="0.0"
     borderopacity="1.0"
     bordercolor="#666666"
     pagecolor="#ffffff"
     id="base"
     inkscape:showpageshadow="2"
     inkscape:pagecheckerboard="0"
     inkscape:deskcolor="#d1d1d1">
    <inkscape:grid
       type="xygrid"
       id="grid4519" />
  </sodipodi:namedview>
  <metadata
     id="metadata5">
    <rdf:RDF>
      <cc:Work
         rdf:about="">
        <dc:format>image/svg+xml</dc:format>
        <dc:type
           rdf:resource="http://purl.org/dc/dcmitype/StillImage" />
      </cc:Work>
    </rdf:RDF>
  </metadata>
  <g
     id="layer1"
     inkscape:groupmode="layer"
     inkscape:label="Ebene 1">
    <g
       id="g2479"
       transform="matrix(0.71467086,0,0,0.71467086,18.659452,19.5668)">
      <ellipse
         cy="73.34375"
         cx="72.814583"
         id="path833-7"
         style="fill:none;stroke:#000000;stroke-width:4.73041;stroke-miterlimit:4;stroke-dasharray:none"
         rx="62.545212"
         ry="63.60355" />
      <path
         style="fill:none;stroke:#000000;stroke-width:3;stroke-linecap:butt;stroke-linejoin:miter;stroke-miterlimit:4;stroke-dasharray:none;stroke-opacity:1"
         d="m 71.201858,74.57623 1.186,-56.650613"
         id="path852" />
      <path
         id="path852-3"
         d="m 71.201858,74.57623 40.164822,0.34041"
         style="fill:none;stroke:#000000;stroke-width:3;stroke-linecap:butt;stroke-linejoin:miter;stroke-miterlimit:4;stroke-dasharray:none;stroke-opacity:1" />
      <ellipse
         style="fill:#ffffff;stroke:#000000;stroke-width:3;stroke-miterlimit:4;stroke-dasharray:none"
         id="path873"
         cx="72.297913"
         cy="74.679161"
         rx="2.3812499"
         ry="1.5875" />
      <g
         aria-label="7 8 9 C 4 5 6 - 1 2 3 +  0  : ="
         id="text893"
         style="font-style:normal;font-weight:normal;font-size:10.5833px;line-height:1.25;font-family:sans-serif;fill:#000000;fill-opacity:1;stroke:none;stroke-width:0.264583"
         transform="matrix(0.74730697,0,0,0.84395434,17.013926,12.139538)">
        <path
           d="M 35.235577,22.378475 28.439093,36.579159 H 25.971027 L 33.02796,22.378475 h -8.756055 v -2.009179 h 10.963672 z"
           style="font-style:normal;font-variant:normal;font-weight:normal;font-stretch:normal;font-size:25.4px;font-family:Consolas;-inkscape-font-specification:'Consolas, Normal';font-variant-ligatures:normal;font-variant-caps:normal;font-variant-numeric:normal;font-variant-east-asian:normal;fill:#000000;stroke-width:0.264583"
           id="path925" />
        <path
           d="m 63.30208,32.51119 q 0,1.029395 -0.421679,1.835547 -0.42168,0.79375 -1.178223,1.339453 -0.756543,0.545703 -1.785937,0.830957 -1.029395,0.285254 -2.232422,0.285254 -1.327051,0 -2.344043,-0.297656 -1.00459,-0.297657 -1.686719,-0.830957 -0.682129,-0.533301 -1.029394,-1.265039 -0.347266,-0.731739 -0.347266,-1.612305 0,-1.488281 0.830957,-2.567285 0.830957,-1.079004 2.567285,-1.95957 -1.5875,-0.806153 -2.319238,-1.785938 -0.731738,-0.992187 -0.731738,-2.269629 0,-0.781347 0.32246,-1.513086 0.322461,-0.731738 0.967383,-1.302246 0.657324,-0.570508 1.63711,-0.905371 0.979785,-0.347265 2.306836,-0.347265 1.252636,0 2.195214,0.272851 0.954981,0.260449 1.599903,0.756543 0.644922,0.496094 0.967382,1.203027 0.322461,0.706934 0.322461,1.575098 0,1.413867 -0.79375,2.406055 -0.781347,0.992187 -2.232421,1.736328 0.719335,0.359668 1.339453,0.79375 0.620117,0.434082 1.079004,0.967383 0.458886,0.5333 0.706933,1.190625 0.260449,0.657324 0.260449,1.463476 z m -2.567285,-8.383984 q 0,-1.103809 -0.781347,-1.63711 -0.768946,-0.545703 -2.170411,-0.545703 -1.389062,0 -2.17041,0.533301 -0.768945,0.533301 -0.768945,1.599902 0,0.483692 0.186035,0.892969 0.186035,0.409278 0.570508,0.768946 0.396875,0.359667 0.979785,0.706933 0.58291,0.347266 1.389063,0.706934 1.401464,-0.657325 2.083593,-1.364258 0.682129,-0.719336 0.682129,-1.661914 z m 0.223242,8.545215 q 0,-0.458887 -0.148828,-0.892969 -0.148828,-0.434082 -0.5333,-0.855762 -0.384473,-0.42168 -1.029395,-0.843359 -0.644922,-0.42168 -1.637109,-0.868164 -0.84336,0.409277 -1.42627,0.818554 -0.570508,0.396875 -0.930176,0.818555 -0.347265,0.409277 -0.496093,0.855762 -0.148828,0.446484 -0.148828,0.942578 0,0.558105 0.235644,0.992187 0.248047,0.42168 0.669727,0.719336 0.421679,0.297657 1.004589,0.446485 0.582911,0.148828 1.265039,0.148828 0.657325,0 1.240235,-0.136426 0.58291,-0.136426 1.00459,-0.409277 0.434082,-0.285254 0.682129,-0.706934 0.248046,-0.434082 0.248046,-1.029394 z"
           style="font-style:normal;font-variant:normal;font-weight:normal;font-stretch:normal;font-size:25.4px;font-family:Consolas;-inkscape-font-specification:'Consolas, Normal';font-variant-ligatures:normal;font-variant-caps:normal;font-variant-numeric:normal;font-variant-east-asian:normal;fill:#000000;stroke-width:0.264583"
           id="path927" />
        <path
           d="m 91.194951,27.562655 q 0,2.368848 -0.570508,4.080371 -0.570508,1.699121 -1.686719,2.80293 -1.116211,1.091406 -2.765722,1.612304 -1.649512,0.520899 -3.80752,0.520899 h -1.351855 v -1.885156 h 1.500683 q 1.599903,0 2.765723,-0.322461 1.16582,-0.322461 1.934765,-0.942578 0.781348,-0.63252 1.190625,-1.525489 0.409278,-0.905371 0.508496,-2.058789 l 0.04961,-0.508496 q -0.781348,0.458887 -1.79834,0.744141 -1.016992,0.272851 -2.207617,0.272851 -1.227832,0 -2.158008,-0.359668 -0.930176,-0.359668 -1.550293,-1.004589 -0.607715,-0.644922 -0.917773,-1.525489 -0.310059,-0.892968 -0.310059,-1.934765 0,-1.128614 0.409277,-2.108399 0.409278,-0.979785 1.141016,-1.699121 0.744141,-0.731738 1.773535,-1.153418 1.029395,-0.421679 2.269629,-0.421679 1.203027,0 2.22002,0.396875 1.029394,0.396875 1.773535,1.289843 0.74414,0.880567 1.16582,2.294434 0.42168,1.413867 0.42168,3.435449 z m -5.680274,-5.643066 q -0.694531,0 -1.289843,0.235644 -0.582911,0.223242 -1.016993,0.669727 -0.421679,0.434082 -0.669726,1.079004 -0.248047,0.644922 -0.248047,1.475879 0,0.756543 0.173633,1.351855 0.186035,0.595312 0.558105,1.016992 0.384473,0.409278 0.979785,0.63252 0.595313,0.223242 1.413868,0.223242 0.458886,0 0.942578,-0.08682 0.496093,-0.08682 0.95498,-0.235644 0.471289,-0.148828 0.892969,-0.347266 0.42168,-0.198437 0.756543,-0.421679 0,-1.599903 -0.235645,-2.666504 Q 88.49124,23.767538 88.044755,23.122616 87.598271,22.465292 86.953349,22.19244 86.32083,21.919589 85.514677,21.919589 Z"
           style="font-style:normal;font-variant:normal;font-weight:normal;font-stretch:normal;font-size:25.4px;font-family:Consolas;-inkscape-font-specification:'Consolas, Normal';font-variant-ligatures:normal;font-variant-caps:normal;font-variant-numeric:normal;font-variant-east-asian:normal;fill:#000000;stroke-width:0.264583"
           id="path929" />
        <path
           d="m 119.10022,35.971444 q -1.94717,0.806152 -4.08037,0.806152 -3.43545,0 -5.2834,-2.046386 -1.83555,-2.058789 -1.83555,-6.077149 0,-1.947168 0.5085,-3.522265 0.5085,-1.575098 1.45107,-2.666504 0.94258,-1.103809 2.28203,-1.699121 1.33946,-0.595313 3.00137,-0.595313 1.12862,0 2.096,0.198438 0.96738,0.186035 1.86035,0.58291 v 2.17041 q -0.88057,-0.483691 -1.82314,-0.731738 -0.94258,-0.260449 -2.05879,-0.260449 -1.14102,0 -2.0712,0.434082 -0.91777,0.421679 -1.56269,1.240234 -0.64492,0.806152 -0.99219,1.984375 -0.34726,1.16582 -0.34726,2.666504 0,3.150195 1.27744,4.750097 1.27744,1.599903 3.74551,1.599903 1.04179,0 1.99677,-0.235645 0.95498,-0.248047 1.83555,-0.682129 z"
           style="font-style:normal;font-variant:normal;font-weight:normal;font-stretch:normal;font-size:25.4px;font-family:Consolas;-inkscape-font-specification:'Consolas, Normal';font-variant-ligatures:normal;font-variant-caps:normal;font-variant-numeric:normal;font-variant-east-asian:normal;fill:#000000;stroke-width:0.264583"
           id="path931" />
        <path
           d="m 36.128546,64.744881 h -2.765723 v 3.584277 h -2.207617 v -3.584277 h -7.801074 v -1.897559 l 6.908105,-10.728027 h 3.100586 v 10.728027 h 2.765723 z m -4.97334,-10.541992 -5.643066,8.644433 h 5.643066 z"
           style="font-style:normal;font-variant:normal;font-weight:normal;font-stretch:normal;font-size:25.4px;font-family:Consolas;-inkscape-font-specification:'Consolas, Normal';font-variant-ligatures:normal;font-variant-caps:normal;font-variant-numeric:normal;font-variant-east-asian:normal;fill:#000000;stroke-width:0.264583"
           id="path933" />
        <path
           d="m 62.892803,63.144979 q 0,1.203027 -0.520898,2.195215 -0.520899,0.992187 -1.438672,1.711523 -0.905371,0.706934 -2.145606,1.103808 -1.240234,0.396875 -2.678906,0.396875 -0.359668,0 -0.781348,-0.0248 -0.409277,-0.0124 -0.818554,-0.04961 -0.409278,-0.0248 -0.806153,-0.06201 -0.384472,-0.03721 -0.694531,-0.08682 v -1.95957 q 0.669727,0.16123 1.525488,0.235645 0.868164,0.07441 1.748731,0.07441 0.992187,0 1.785937,-0.235645 0.79375,-0.235644 1.351856,-0.669726 0.558105,-0.446485 0.855762,-1.066602 0.297656,-0.63252 0.297656,-1.413867 0,-1.513086 -1.091406,-2.195215 -1.079004,-0.694531 -3.112989,-0.694531 h -3.075781 v -8.284766 h 8.73125 v 1.885156 h -6.697266 v 4.551661 h 1.413868 q 1.16582,0 2.269628,0.210839 1.103809,0.21084 1.959571,0.744141 0.868164,0.520898 1.389062,1.413867 0.533301,0.880567 0.533301,2.22002 z"
           style="font-style:normal;font-variant:normal;font-weight:normal;font-stretch:normal;font-size:25.4px;font-family:Consolas;-inkscape-font-specification:'Consolas, Normal';font-variant-ligatures:normal;font-variant-caps:normal;font-variant-numeric:normal;font-variant-east-asian:normal;fill:#000000;stroke-width:0.264583"
           id="path935" />
        <path
           d="m 91.480205,63.194588 q 0,1.116211 -0.409278,2.095996 -0.396875,0.979785 -1.141015,1.711524 -0.744141,0.719335 -1.79834,1.141015 -1.041797,0.409277 -2.319238,0.409277 -1.339454,0 -2.368848,-0.421679 -1.029395,-0.434082 -1.723926,-1.314649 -0.694531,-0.892968 -1.054199,-2.244824 -0.359668,-1.351855 -0.359668,-3.199804 0,-1.240235 0.16123,-2.406055 0.161231,-1.16582 0.533301,-2.195215 0.372071,-1.029394 0.992188,-1.885156 0.620117,-0.855762 1.53789,-1.463477 0.930176,-0.620117 2.182813,-0.95498 1.252637,-0.347266 2.902148,-0.347266 h 1.599903 v 1.885156 h -1.736329 q -1.451074,0 -2.517675,0.347266 -1.066602,0.347266 -1.785938,0.979785 -0.719336,0.63252 -1.103808,1.525489 -0.384473,0.892968 -0.483692,1.996777 l -0.04961,0.508496 q 0.781348,-0.458887 1.79834,-0.731738 1.029394,-0.285254 2.220019,-0.285254 1.227832,0 2.145606,0.359668 0.930175,0.359668 1.53789,1.00459 0.620117,0.632519 0.930176,1.525488 0.310059,0.892969 0.310059,1.95957 z m -2.257227,0.136426 q 0,-0.744141 -0.186035,-1.339453 -0.173633,-0.607715 -0.558106,-1.016992 -0.384472,-0.42168 -0.979785,-0.644922 -0.58291,-0.235645 -1.401465,-0.235645 -0.471289,0 -0.95498,0.08682 -0.483691,0.08682 -0.95498,0.248046 -0.458887,0.148829 -0.880567,0.347266 -0.42168,0.198438 -0.768945,0.42168 0,1.599902 0.223242,2.678906 0.223242,1.066602 0.657324,1.711523 0.446485,0.644922 1.091406,0.917774 0.644922,0.272851 1.488282,0.272851 0.706933,0 1.289843,-0.223242 0.595313,-0.235644 1.016993,-0.682129 0.434082,-0.446484 0.669726,-1.079004 0.248047,-0.644921 0.248047,-1.463476 z"
           style="font-style:normal;font-variant:normal;font-weight:normal;font-stretch:normal;font-size:25.4px;font-family:Consolas;-inkscape-font-specification:'Consolas, Normal';font-variant-ligatures:normal;font-variant-caps:normal;font-variant-numeric:normal;font-variant-east-asian:normal;fill:#000000;stroke-width:0.264583"
           id="path937" />
        <path
           d="m 117.45071,62.586873 h -7.4166 v -2.033984 h 7.4166 z"
           style="font-style:normal;font-variant:normal;font-weight:normal;font-stretch:normal;font-size:25.4px;font-family:Consolas;-inkscape-font-specification:'Consolas, Normal';font-variant-ligatures:normal;font-variant-caps:normal;font-variant-numeric:normal;font-variant-east-asian:normal;fill:#000000;stroke-width:0.264583"
           id="path939" />
        <path
           d="M 35.185968,100.07916 H 25.003644 v -2.009182 h 4.167187 V 86.238142 l -3.881933,2.108399 -0.79375,-1.835547 5.159375,-2.716113 h 1.909961 v 14.275097 h 3.621484 z"
           style="font-style:normal;font-variant:normal;font-weight:normal;font-stretch:normal;font-size:25.4px;font-family:Consolas;-inkscape-font-specification:'Consolas, Normal';font-variant-ligatures:normal;font-variant-caps:normal;font-variant-numeric:normal;font-variant-east-asian:normal;fill:#000000;stroke-width:0.264583"
           id="path941" />
        <path
           d="M 63.30208,100.07916 H 52.623663 v -1.934768 l 4.191992,-4.167187 q 1.029394,-1.016992 1.674316,-1.761133 0.644922,-0.744141 1.00459,-1.351855 0.359668,-0.620118 0.483691,-1.165821 0.124024,-0.545703 0.124024,-1.178222 0,-0.595313 -0.161231,-1.128614 -0.16123,-0.545703 -0.496094,-0.95498 -0.334863,-0.409277 -0.868164,-0.644922 -0.5333,-0.235644 -1.277441,-0.235644 -1.029394,0 -1.872754,0.458886 -0.843359,0.458887 -1.550293,1.190625 l -1.190625,-1.426269 q 0.917774,-0.967383 2.108399,-1.550293 1.203027,-0.58291 2.790527,-0.58291 1.079004,0 1.95957,0.322461 0.892969,0.32246 1.537891,0.930175 0.644922,0.607715 0.992187,1.488282 0.359668,0.880566 0.359668,1.984375 0,0.930175 -0.248047,1.723925 -0.248046,0.79375 -0.756543,1.5875 -0.496093,0.781348 -1.265039,1.624707 -0.756543,0.84336 -1.798339,1.847949 l -2.939356,2.864942 h 7.875488 z"
           style="font-style:normal;font-variant:normal;font-weight:normal;font-stretch:normal;font-size:25.4px;font-family:Consolas;-inkscape-font-specification:'Consolas, Normal';font-variant-ligatures:normal;font-variant-caps:normal;font-variant-numeric:normal;font-variant-east-asian:normal;fill:#000000;stroke-width:0.264583"
           id="path943" />
        <path
           d="m 90.971708,95.155427 q 0,1.066602 -0.434082,2.00918 -0.434082,0.930176 -1.302246,1.637109 -0.868164,0.694532 -2.182812,1.103809 -1.314648,0.396875 -3.063379,0.396875 -0.967383,0 -1.736328,-0.062 -0.768945,-0.062 -1.438672,-0.16123 v -1.934768 q 0.768945,0.136426 1.624707,0.21084 0.855762,0.07441 1.748731,0.07441 1.215429,0 2.071191,-0.21084 0.868164,-0.223242 1.413867,-0.632519 0.545703,-0.409278 0.79375,-0.992188 0.248047,-0.58291 0.248047,-1.314648 0,-0.669727 -0.297656,-1.16582 -0.297657,-0.496094 -0.84336,-0.830957 -0.5333,-0.334864 -1.289843,-0.496094 -0.744141,-0.173633 -1.63711,-0.173633 h -1.847949 v -1.773535 h 1.872754 q 0.731738,0 1.327051,-0.186035 0.607715,-0.198438 1.029394,-0.558106 0.434082,-0.359668 0.657324,-0.880566 0.235645,-0.533301 0.235645,-1.203027 0,-1.302247 -0.79375,-1.897559 -0.79375,-0.595313 -2.331641,-0.595313 -0.818554,0 -1.686718,0.161231 -0.868164,0.16123 -1.860352,0.483691 v -1.885156 q 0.42168,-0.148828 0.892969,-0.260449 0.483691,-0.124024 0.95498,-0.198438 0.483692,-0.08682 0.954981,-0.124023 0.471289,-0.04961 0.905371,-0.04961 1.289844,0 2.269629,0.285254 0.979785,0.272851 1.637109,0.793749 0.657324,0.520899 0.992188,1.26504 0.334863,0.74414 0.334863,1.674316 0,1.389062 -0.719336,2.331641 -0.706934,0.942578 -1.947168,1.500683 0.63252,0.09922 1.240234,0.396875 0.620118,0.297656 1.103809,0.768945 0.496094,0.458887 0.79375,1.091407 0.310058,0.632519 0.310058,1.401464 z"
           style="font-style:normal;font-variant:normal;font-weight:normal;font-stretch:normal;font-size:25.4px;font-family:Consolas;-inkscape-font-specification:'Consolas, Normal';font-variant-ligatures:normal;font-variant-caps:normal;font-variant-numeric:normal;font-variant-east-asian:normal;fill:#000000;stroke-width:0.264583"
           id="path945" />
        <path
           d="m 119.68313,94.262459 h -4.87412 v 5.060156 h -2.1332 v -5.060156 h -4.87413 v -1.885157 h 4.87413 v -5.022949 h 2.1332 v 5.022949 h 4.87412 z"
           style="font-style:normal;font-variant:normal;font-weight:normal;font-stretch:normal;font-size:25.4px;font-family:Consolas;-inkscape-font-specification:'Consolas, Normal';font-variant-ligatures:normal;font-variant-caps:normal;font-variant-numeric:normal;font-variant-east-asian:normal;fill:#000000;stroke-width:0.264583"
           id="path947" />
        <path
           d="m 49.684307,123.73043 q 0,1.86035 -0.37207,3.39824 -0.37207,1.52549 -1.128613,2.6293 -0.756543,1.0914 -1.885157,1.69912 -1.11621,0.59531 -2.629296,0.59531 -1.302246,0 -2.368848,-0.48369 -1.066602,-0.4961 -1.823144,-1.51309 -0.756543,-1.01699 -1.165821,-2.59209 -0.409277,-1.5751 -0.409277,-3.7331 0,-1.86035 0.37207,-3.39825 0.384473,-1.53789 1.128613,-2.62929 0.756543,-1.10381 1.885157,-1.69912 1.128613,-0.60772 2.629297,-0.60772 1.302246,0 2.368847,0.4961 1.066602,0.48369 1.823145,1.51308 0.756543,1.01699 1.16582,2.59209 0.409277,1.5751 0.409277,3.73311 z m -2.182812,0.0744 q 0,-0.42168 -0.03721,-0.83096 -0.02481,-0.42168 -0.06201,-0.81855 l -6.858496,5.09736 q 0.186035,0.64492 0.471289,1.19063 0.285254,0.5457 0.682129,0.94258 0.409277,0.38447 0.917773,0.60771 0.520899,0.21084 1.178223,0.21084 0.843359,0 1.525488,-0.40928 0.694532,-0.40927 1.178223,-1.21543 0.483691,-0.80615 0.744141,-1.99677 0.260449,-1.20303 0.26045,-2.77813 z M 40.084893,123.656 q 0,0.38448 0,0.76895 0.0124,0.38447 0.04961,0.74414 l 6.858496,-5.07256 q -0.186035,-0.63252 -0.471289,-1.15342 -0.285254,-0.5209 -0.682129,-0.89297 -0.396875,-0.38447 -0.905371,-0.59531 -0.508496,-0.21084 -1.141016,-0.21084 -0.843359,0 -1.537891,0.40928 -0.682128,0.40928 -1.16582,1.22783 -0.483691,0.80615 -0.74414,2.00918 -0.26045,1.19063 -0.26045,2.76572 z"
           style="font-style:normal;font-variant:normal;font-weight:normal;font-stretch:normal;font-size:25.4px;font-family:Consolas;-inkscape-font-specification:'Consolas, Normal';font-variant-ligatures:normal;font-variant-caps:normal;font-variant-numeric:normal;font-variant-east-asian:normal;fill:#000000;stroke-width:0.264583"
           id="path949" />
        <path
           d="m 85.762724,119.15396 q 0.384473,0 0.731738,0.16123 0.347266,0.14883 0.607715,0.40928 0.26045,0.26045 0.409278,0.60771 0.16123,0.34727 0.16123,0.73174 0,0.39688 -0.16123,0.74414 -0.148828,0.33487 -0.409278,0.59532 -0.260449,0.26045 -0.607715,0.40927 -0.347265,0.14883 -0.731738,0.14883 -0.396875,0 -0.74414,-0.14883 -0.334864,-0.14882 -0.595313,-0.40927 -0.260449,-0.26045 -0.409277,-0.59532 -0.148828,-0.34726 -0.148828,-0.74414 0,-0.38447 0.148828,-0.73174 0.148828,-0.34726 0.409277,-0.60771 0.260449,-0.26045 0.595313,-0.40928 0.347265,-0.16123 0.74414,-0.16123 z m 0,9.09092 q 0.384473,0 0.731738,0.16123 0.347266,0.14883 0.607715,0.40928 0.26045,0.26045 0.409278,0.60771 0.16123,0.34727 0.16123,0.73174 0,0.39688 -0.16123,0.74414 -0.148828,0.33486 -0.409278,0.59531 -0.260449,0.26045 -0.607715,0.40928 -0.347265,0.14883 -0.731738,0.14883 -0.396875,0 -0.74414,-0.14883 -0.334864,-0.14883 -0.595313,-0.40928 -0.260449,-0.26045 -0.409277,-0.59531 -0.148828,-0.34726 -0.148828,-0.74414 0,-0.38447 0.148828,-0.73174 0.148828,-0.34726 0.409277,-0.60771 0.260449,-0.26045 0.595313,-0.40928 0.347265,-0.16123 0.74414,-0.16123 z"
           style="font-style:normal;font-variant:normal;font-weight:normal;font-stretch:normal;font-size:25.4px;font-family:Consolas;-inkscape-font-specification:'Consolas, Normal';font-variant-ligatures:normal;font-variant-caps:normal;font-variant-numeric:normal;font-variant-east-asian:normal;fill:#000000;stroke-width:0.264583"
           id="path951" />
        <path
           d="M 119.07541,123.81724 H 108.4094 v -1.82314 h 10.66601 z m 0,4.31602 H 108.4094 v -1.82315 h 10.66601 z"
           style="font-style:normal;font-variant:normal;font-weight:normal;font-stretch:normal;font-size:25.4px;font-family:Consolas;-inkscape-font-specification:'Consolas, Normal';font-variant-ligatures:normal;font-variant-caps:normal;font-variant-numeric:normal;font-variant-east-asian:normal;fill:#000000;stroke-width:0.264583"
           id="path953" />
      </g>
    </g>
  </g>
</svg>
